HIERARCHY
ROOT pelvis
{
  OFFSET 0 100 0
  CHANNELS 6 Xposition Yposition Zposition Zrotation Xrotation Yrotation
  JOINT pelvis_right_femur
  {
    OFFSET -10.78128 -3.44521 -0.5502486
    CHANNELS 3 Zrotation Xrotation Yrotation
    JOINT right_femur_tibia
    {
      OFFSET -0.8047443 -44.0398 -0.1307829
      CHANNELS 3 Zrotation Xrotation Yrotation
      JOINT right_tibia_foot
      {
        OFFSET 3.006224 -47.83518 -5
        CHANNELS 3 Zrotation Xrotation Yrotation
        End Site
        {
          OFFSET 0 -5 15
        }
      }
    }
  }
  JOINT pelvis_left_femur
  {
    OFFSET 10.78128 -3.44521 -0.5502486
    CHANNELS 3 Zrotation Xrotation Yrotation
    JOINT left_femur_tibia
    {
      OFFSET 0.8047443 -44.0398 -0.1307829
      CHANNELS 3 Zrotation Xrotation Yrotation
      JOINT left_tibia_foot
      {
        OFFSET -4.370144 -48.10324 -4.275266
        CHANNELS 3 Zrotation Xrotation Yrotation
        End Site
        {
          OFFSET 0 -5 15
        }
      }
    }
  }
  JOINT pelvis_spine1
  {
    OFFSET 0 6.468898 -3.129235
    CHANNELS 3 Zrotation Xrotation Yrotation
    JOINT spine1
    {
      OFFSET 0 23.15396 4.99043
      CHANNELS 3 Zrotation Xrotation Yrotation
      JOINT spine2
      {
        OFFSET 0 20.79997 -5.064912
        CHANNELS 3 Zrotation Xrotation Yrotation
        JOINT neck
        {
          OFFSET 0 14.38658 9.616178
          CHANNELS 3 Zrotation Xrotation Yrotation
          End Site
          {
            OFFSET 0 20 0
          }
        }
      }
      JOINT right_manubrium
      {
        OFFSET -5.722621 16.35077 3.967754
        CHANNELS 3 Zrotation Xrotation Yrotation
        JOINT right_clavicle
        {
          OFFSET -13.16364 1.694482 -4.693211
          CHANNELS 3 Zrotation Xrotation Yrotation
          JOINT right_humerus
          {
            OFFSET -28.5034 -0.3100689 -2.792744
            CHANNELS 3 Zrotation Xrotation Yrotation
            JOINT right_radius
            {
              OFFSET -25.15693 0.02248979 -1.271978
              CHANNELS 3 Zrotation Xrotation Yrotation
              End Site
              {
                OFFSET -15 0 0
              }
            }
          }
        }
      }
      JOINT left_manubrium
      {
        OFFSET 5.722621 16.35077 3.967754
        CHANNELS 3 Zrotation Xrotation Yrotation
        JOINT left_clavicle
        {
          OFFSET 13.16364 1.694482 -4.693211
          CHANNELS 3 Zrotation Xrotation Yrotation
          JOINT left_humerus
          {
            OFFSET 29.39168 -1.063119 -2.237045
            CHANNELS 3 Zrotation Xrotation Yrotation
            JOINT left_radius
            {
              OFFSET 24.59957 -0.9528479 0.9047498
              CHANNELS 3 Zrotation Xrotation Yrotation
              End Site
              {
                OFFSET 15 -0 -0
              }
            }
          }
        }
      }
    }
  }
}
MOTION
Frames: 13
Frame Time: 0.0416666666667
0 103.5113 0 2.449855 -0.8241276 0.08084855 3.374431 -14.8457 12.34162 -0 34.44109 -0 -0.4332402 -17.22464 -3.347536 -8.347547 9.593171 -21.55144 -0 4.070946 -0 20.42595 -9.374734 29.59411 -2.425774 -1.642906 5.150402 2.500489 10.50984 -6.781559 1.656522 21.77318 6.297416 2.363816 -23.55781 9.716385 5.567604 -18.82939 11.60524 86.62435 39.06555 -17.46014 -0 0 13.81807 -7.171319 9.210808 4.702296 4.8137 -19.74016 -2.068675 -90.72323 20.84928 19.60648 0 0 -17.28388 13.72741 12.23258 -1.875063
0.5410272 103.2838 1.757666 1.923923 0.4596307 0.09077817 4.441593 -18.22361 13.15361 -0 34.72971 -0 -0.6671592 -17.7079 -3.453202 -8.174248 9.987484 -21.81066 -0 4.073177 -0 20.97253 -9.930471 30.04558 -2.324256 -1.473695 4.982311 2.641962 10.61952 -6.901571 1.641174 21.65122 6.48747 2.397855 -23.98174 9.96433 5.48033 -18.71208 11.61972 87.47809 39.54652 -18.49579 -0 0 12.80199 -6.616328 9.185791 4.566706 4.768316 -19.88879 -2.46068 -89.97974 21.0029 18.89781 0 0 -19.39004 14.24243 11.28374 -2.130461
0.9157525 103.0264 3.629238 1.25347 1.000332 0.1563763 5.010184 -21.25987 11.0434 -0 33.37153 -0 -2.983421 -16.28371 -2.981291 -7.817384 10.81188 -21.7454 -0 4.595922 -0 18.28254 -12.67609 29.09929 -2.249647 -1.401612 4.845812 2.76967 10.65175 -7.006557 1.60018 21.56746 6.593628 2.420597 -24.29535 10.04378 5.441399 -18.59511 11.64836 87.83814 39.50307 -19.08949 -0 0 12.15333 -6.440895 9.139446 4.661524 4.750833 -19.98523 -2.679317 -89.57303 21.20772 18.49802 0 0 -20.55689 14.28956 10.76578 -1.999203
1.201371 102.7447 5.673883 0.6746017 1.587363 0.2356544 5.700709 -24.21471 10.05225 -0 31.92849 -0 -4.264699 -14.92207 -2.669528 -7.457168 11.36602 -21.40077 -0 5.18126 -0 16.76477 -14.42402 28.28695 -2.209437 -1.348824 4.746803 2.846444 10.65015 -7.06246 1.572638 21.51902 6.656202 2.437316 -24.44451 10.07025 5.420453 -18.49227 11.66816 87.9921 39.45845 -19.37473 -0 0 11.73985 -6.402837 9.115871 4.786492 4.736989 -20.02539 -2.811649 -89.26752 21.29478 18.19019 0 0 -21.27225 14.27065 10.44059 -1.894236
1.424934 102.4083 7.969129 0.1080881 2.129056 0.3350206 6.371483 -27.20806 9.137135 -0 29.93511 -0 -5.321167 -13.17926 -2.353059 -7.053572 11.93236 -20.83491 -0 5.92643 -0 15.06708 -16.18177 27.18736 -2.174905 -1.306298 4.652713 2.922224 10.64139 -7.115947 1.541195 21.48283 6.698769 2.449843 -24.56713 10.06187 5.412128 -18.38386 11.6925 88.06546 39.31904 -19.58665 -0 0 11.38274 -6.422779 9.082828 4.943267 4.715962 -20.05384 -2.923267 -89.02822 21.39172 17.94406 0 0 -21.79537 14.16096 10.19471 -1.710877
1.618301 102.0025 10.59262 -0.3636987 2.629757 0.4613905 6.978135 -29.92672 8.38728 -0 27.45975 -0 -6.046566 -11.22148 -2.024309 -6.703721 12.4548 -20.04923 -0 6.909714 -0 13.68406 -17.55743 25.97844 -2.147261 -1.265183 4.562906 2.99025 10.62606 -7.1616 1.51096 21.45529 6.729661 2.460752 -24.65298 10.03504 5.40986 -18.27081 11.71676 88.09166 39.16127 -19.736 -0 0 11.06495 -6.479301 9.05124 5.114005 4.691385 -20.07048 -3.021346 -88.80831 21.46736 17.71412 0 0 -22.21476 14.01806 9.989749 -1.512232
1.798933 101.5335 13.61984 -0.7522619 3.111156 0.6353034 7.481091 -32.28224 7.676086 -0 24.62897 -0 -6.569579 -9.12833 -1.697656 -6.407856 13.00253 -19.11128 -0 8.237311 -0 12.32551 -18.65632 24.57591 -2.123077 -1.22614 4.473591 3.057527 10.60728 -7.206497 1.479256 21.43238 6.753085 2.470583 -24.72336 9.993668 5.412003 -18.15341 11.74231 88.08982 38.97351 -19.857 -0 0 10.76612 -6.559963 9.01625 5.29641 4.663525 -20.0824 -3.112934 -88.60588 21.5385 17.49954 0 0 -22.56415 13.84129 9.810811 -1.287488
1.975713 101.0362 17.11443 -1.060372 3.549641 0.8799949 7.84679 -34.02722 6.941066 -0 21.74751 -0 -6.991625 -7.047352 -1.381699 -6.169541 13.56258 -18.06667 -0 10.10583 -0 10.9064 -19.3488 22.94306 -2.10285 -1.187139 4.386909 3.120801 10.58627 -7.24797 1.447664 21.41515 6.768214 2.479195 -24.77175 9.938561 5.418195 -18.03259 11.7683 88.06215 38.7682 -19.94487 -0 0 10.48987 -6.663871 8.980512 5.486581 4.631677 -20.0883 -3.198337 -88.41818 21.59957 17.298 0 0 -22.84477 13.63771 9.656908 -1.044984
2.150098 100.5774 21.12174 -1.330491 3.902054 1.212549 8.096571 -34.95347 6.17093 -0 19.20453 -0 -7.423686 -5.133024 -1.102324 -5.939454 14.07917 -16.95639 -0 12.77413 -0 9.225802 -19.50405 20.99395 -2.086412 -1.147413 4.305729 3.178108 10.56539 -7.284533 1.416912 21.40504 6.773169 2.485936 -24.79584 9.868897 5.428773 -17.91052 11.79469 88.00921 38.54626 -19.99736 -0 0 10.24189 -6.790494 8.944391 5.681186 4.594055 -20.08763 -3.277773 -88.25167 21.65267 17.11699 0 0 -23.04622 13.40671 9.531643 -0.7826838
2.321467 100.252 25.65678 -1.618542 4.083858 1.624017 8.305888 -34.8528 5.426106 -0 17.42271 -0 -7.960173 -3.569387 -0.8828752 -5.640477 14.39419 -15.79913 -0 16.55923 -0 7.219566 -18.87959 18.70632 -2.074004 -1.105391 4.234556 3.225244 10.54722 -7.312539 1.388666 21.40463 6.7649 2.489926 -24.78817 9.783307 5.444302 -17.78978 11.82111 87.92861 38.31312 -20.00492 -0 0 10.03254 -6.941305 8.9099 5.876486 4.548333 -20.07823 -3.350566 -88.1133 21.69688 16.9647 0 0 -23.15253 13.14909 9.440982 -0.5012227
2.492802 100.1686 30.69207 -1.973751 3.981691 2.05901 8.574179 -33.58029 4.81826 -0 16.69806 -0 -8.652012 -2.551976 -0.7529982 -5.182615 14.24002 -14.59855 -0 21.77955 -0 4.981333 -17.22484 16.16768 -2.065651 -1.059699 4.178486 3.257787 10.53456 -7.328082 1.364605 21.41645 6.740311 2.490253 -24.74188 9.680567 5.465204 -17.67375 11.84722 87.81753 38.07357 -19.95756 -0 0 9.873296 -7.117934 8.8791 6.068885 4.492187 -20.05785 -3.415836 -88.01136 21.73254 16.85111 0 0 -23.14714 12.86539 9.391108 -0.2003779
2.674903 100.4254 36.14435 -2.389583 3.477298 2.40328 8.932077 -31.07215 4.430109 -0 17.01058 -0 -9.479219 -2.258683 -0.7472248 -4.51708 13.25129 -13.35254 -0 28.64645 -0 2.79385 -14.43358 13.61498 -2.061338 -1.009187 4.142919 3.27093 10.52987 -7.326803 1.346526 21.4428 6.696613 2.486156 -24.65002 9.559952 5.491556 -17.56637 11.87254 87.67232 37.8336 -19.8438 -0 0 9.776547 -7.322646 8.854596 6.255435 4.423881 -20.02406 -3.472135 -87.95345 21.75941 16.78571 0 0 -23.01548 12.55728 9.387547 0.1187548
2.883597 101.0766 41.86874 -2.755267 2.509063 2.506821 9.240353 -27.35567 4.211106 -0 17.85283 -0 -10.32937 -2.776975 -0.8944719 -3.702494 11.04924 -12.07111 -0 37.04598 -0 0.9789369 -10.78101 11.37005 -2.060986 -0.9535265 4.132907 3.26025 10.53464 -7.304599 1.335969 21.48514 6.631968 2.477207 -24.50734 9.421607 5.522864 -17.47209 11.89651 87.48889 37.59904 -19.65248 -0 0 9.754458 -7.5581 8.839031 6.434454 4.342911 -19.97471 -3.517258 -87.94592 21.7771 16.77689 0 0 -22.74732 12.22734 9.434306 0.4539165
